<?xml version="1.0" encoding="utf-8"?>
<!-- Generator: Adobe Illustrator 15.1.0, SVG Export Plug-In . SVG Version: 6.00 Build 0)  -->
<!DOCTYPE svg PUBLIC "-//W3C//DTD SVG 1.1//EN" "http://www.w3.org/Graphics/SVG/1.1/DTD/svg11.dtd">
<svg version="1.1" id="Ebene_1" xmlns="http://www.w3.org/2000/svg" xmlns:xlink="http://www.w3.org/1999/xlink" x="0px" y="0px"
	 width="340.16px" height="57.333px" viewBox="0 0 340.16 57.333" enable-background="new 0 0 340.16 57.333" xml:space="preserve">
<rect x="0.008" fill="#CE0044" width="340.152" height="30.921"/>
<path fill="#FFFFFF" d="M15.051,9.223l-4.146,9.435h8.293L15.051,9.223z M9.696,21.317l-2.661,5.85H3.912L15.051,2.846
	l11.137,24.321h-3.125l-2.661-5.85H9.696z"/>
<polygon fill="#FFFFFF" points="27.396,3.84 39.924,3.84 39.924,6.498 30.303,6.498 30.303,13.023 39.646,13.023 39.646,15.692 
	30.303,15.692 30.303,24.503 39.924,24.503 39.924,27.167 27.396,27.167 "/>
<g>
	<path fill="#FFFFFF" d="M64.021,15.412v0.925c0,6.404-4.511,11.327-11.045,11.327c-6.526,0-11.784-5.633-11.784-12.098
		c0-6.715,5.385-12.22,12.097-12.22c3.621,0,7.207,1.637,9.498,4.514l-2.043,1.951c-1.668-2.291-4.489-3.809-7.329-3.809
		c-5.231,0-9.313,4.241-9.313,9.466c0,4.892,4.021,9.532,9.066,9.532c3.619,0,7.516-3.123,7.64-6.929h-6.034v-2.66H64.021z"/>
</g>
<polygon fill="#FFFFFF" points="66.161,3.84 78.687,3.84 78.687,6.498 69.066,6.498 69.066,13.023 78.41,13.023 78.41,15.692 
	69.066,15.692 69.066,24.503 78.687,24.503 78.687,27.167 66.161,27.167 "/>
<g>
	<path fill="#FFFFFF" d="M84.445,14.885h0.93c2.965,0,6.186-0.559,6.186-4.274c0-3.648-3.465-4.177-6.343-4.177h-0.773V14.885z
		 M96.044,27.167h-3.529l-6.869-9.87h-1.202v9.87h-2.907V3.84h3.529c2.072,0,4.295,0.029,6.155,1.079
		c1.943,1.144,3.057,3.343,3.057,5.572c0,3.343-2.224,6.126-5.597,6.526L96.044,27.167z"/>
</g>
<polygon fill="#FFFFFF" points="103.258,27.167 100.347,27.167 100.347,6.498 94.808,6.498 94.808,3.84 108.793,3.84 108.793,6.498 
	103.258,6.498 "/>
<polygon fill="#FFFFFF" points="110.338,3.84 122.871,3.84 122.871,6.498 113.25,6.498 113.25,13.023 122.587,13.023 
	122.587,15.692 113.25,15.692 113.25,24.503 122.871,24.503 122.871,27.167 110.338,27.167 "/>
<g>
	<path fill="#FFFFFF" d="M128.622,14.885h0.928c2.971,0,6.192-0.559,6.192-4.274c0-3.648-3.466-4.177-6.346-4.177h-0.774V14.885z
		 M140.222,27.167h-3.524l-6.868-9.87h-1.208v9.87h-2.903V3.84h3.517c2.08,0,4.303,0.029,6.16,1.079
		c1.951,1.144,3.065,3.343,3.065,5.572c0,3.343-2.229,6.126-5.603,6.526L140.222,27.167z"/>
	<path fill="#FFFFFF" d="M155.262,11.761c1.175-0.93,2.786-1.89,2.786-3.589c0-1.641-1.174-2.538-2.722-2.538
		c-1.398,0-2.603,0.989-2.603,2.475c0,1.177,0.713,2.04,1.396,2.906l0.77,0.991L155.262,11.761z M153.991,15.846
		c-1.605,1.108-4.237,2.689-4.237,4.916c0,2.228,2.103,4.303,4.334,4.303c2.16,0,3.895-1.642,5.355-3.095l-5.169-6.313
		L153.991,15.846z M161.168,24.011c-1.757,2.072-4.234,3.646-6.992,3.646c-3.896,0-7.145-2.843-7.145-6.863
		c0-2.975,1.856-4.583,4.08-6.189l1.46-1.051c-1.335-1.395-2.57-3.126-2.57-5.106c0-3.217,2.32-5.102,5.383-5.102
		c2.846,0,5.384,1.791,5.384,4.854c0,2.631-2.287,4.394-4.241,5.817l4.854,5.88l2.729-3.154l1.857,1.915L163.117,22l4.178,5.167
		h-3.589L161.168,24.011z"/>
	<path fill="#FFFFFF" d="M177.537,24.566h2.222c2.695,0,5.51-0.8,5.51-4.114c0-3.277-3.34-3.96-5.938-3.96h-1.794V24.566z
		 M177.537,14.171h0.743c2.754,0,5.008-0.553,5.008-3.897c0-3.279-2.226-3.84-4.948-3.84h-0.803V14.171z M174.625,3.84h2.851
		c4.393,0,8.539,1.143,8.539,6.403c0,1.7-0.933,3.683-2.507,4.422v0.063c2.746,0.496,4.669,3.185,4.669,5.908
		c0,4.671-3.991,6.529-8.103,6.529h-5.449V3.84z"/>
	<path fill="#FFFFFF" d="M210.574,15.502c0-5.136-3.833-9.439-9.314-9.439c-5.471,0-9.309,4.304-9.309,9.439
		c0,5.321,4.269,9.436,9.309,9.436C206.305,24.938,210.574,20.823,210.574,15.502 M213.483,15.502
		c0,6.93-5.478,12.162-12.224,12.162c-6.741,0-12.217-5.231-12.217-12.162c0-6.685,5.541-12.156,12.217-12.156
		C207.946,3.346,213.483,8.817,213.483,15.502"/>
	<path fill="#FFFFFF" d="M225.921,8.263c-0.864-1.454-1.974-2.2-3.739-2.2c-1.864,0-3.903,1.269-3.903,3.314
		c0,1.826,1.794,2.787,3.251,3.343l1.672,0.646c3.305,1.303,5.779,3.125,5.779,7.023c0,4.239-3.28,7.275-7.451,7.275
		c-3.774,0-6.719-2.786-7.209-6.533l2.936-0.617c-0.03,2.572,2.015,4.424,4.519,4.424c2.506,0,4.302-2.104,4.302-4.549
		c0-2.506-2.015-3.589-4.017-4.422l-1.612-0.681c-2.661-1.143-5.076-2.66-5.076-5.909c0-3.776,3.343-6.034,6.868-6.034
		c2.596,0,4.735,1.269,6,3.526L225.921,8.263z"/>
	<path fill="#FFFFFF" d="M241.792,8.263c-0.868-1.454-1.979-2.2-3.74-2.2c-1.857,0-3.899,1.269-3.899,3.314
		c0,1.826,1.792,2.787,3.25,3.343l1.667,0.646c3.305,1.303,5.786,3.125,5.786,7.023c0,4.239-3.274,7.275-7.453,7.275
		c-3.775,0-6.716-2.786-7.214-6.533l2.944-0.617c-0.028,2.572,2.007,4.424,4.512,4.424c2.508,0,4.302-2.104,4.302-4.549
		c0-2.506-2.01-3.589-4.02-4.422l-1.607-0.681c-2.665-1.143-5.072-2.66-5.072-5.909c0-3.776,3.339-6.034,6.868-6.034
		c2.588,0,4.729,1.269,6,3.526L241.792,8.263z"/>
</g>
<polygon fill="#FFFFFF" points="261.066,13.243 261.066,3.84 263.973,3.84 263.973,27.167 261.066,27.167 261.066,15.967 
	249.96,15.967 249.96,27.167 247.051,27.167 247.051,3.84 249.96,3.84 249.96,13.243 "/>
<path fill="#FFFFFF" d="M276.104,9.223l-4.149,9.435h8.292L276.104,9.223z M270.746,21.317l-2.659,5.85h-3.123l11.141-24.321
	l11.135,24.321h-3.124l-2.66-5.85H270.746z"/>
<g>
	<path fill="#FFFFFF" d="M291.355,14.885h0.93c2.967,0,6.186-0.559,6.186-4.274c0-3.648-3.466-4.177-6.343-4.177h-0.772V14.885z
		 M302.959,27.167h-3.529l-6.87-9.87h-1.204v9.87h-2.908V3.84h3.522c2.078,0,4.304,0.029,6.16,1.079
		c1.947,1.144,3.066,3.343,3.066,5.572c0,3.343-2.232,6.126-5.606,6.526L302.959,27.167z"/>
	<path fill="#FFFFFF" d="M307.162,24.503h1.021c5.943,0,11.078-2.226,11.078-9.001c0-6.808-5.135-9.005-11.078-9.005h-1.021V24.503z
		 M304.258,3.84h4.822c7.144,0,13.088,3.771,13.088,11.537c0,7.953-5.814,11.79-13.178,11.79h-4.732V3.84z"/>
</g>
<polygon fill="#FFFFFF" points="330.611,27.167 327.705,27.167 327.705,6.498 322.166,6.498 322.166,3.84 336.155,3.84 
	336.155,6.498 330.611,6.498 "/>
<g>
	<g>
		<g>
			<path fill="#130209" d="M188.971,40.118h1.611v12.781h-1.611V40.118z"/>
			<path fill="#130209" d="M193.108,45.574c0-0.678-0.056-1.355-0.073-2.014h1.482l0.056,1.392h0.036
				c0.494-1.062,1.282-1.52,2.362-1.52c1.63,0,2.729,0.934,2.729,2.985v6.482h-1.538v-6.024c0-1.483-0.55-2.124-1.538-2.124
				c-1.209,0-1.978,0.843-1.978,2.527v5.621h-1.538V45.574z"/>
			<path fill="#130209" d="M208.653,53.301c0,2.582-1.94,3.662-3.991,3.662c-0.788,0-2.051-0.293-2.729-0.568l0.073-1.556
				c0.659,0.439,1.721,0.806,2.563,0.806c1.886,0,2.618-1.117,2.618-2.728v-1.465h-0.036c-0.604,1.062-1.429,1.574-2.454,1.574
				c-1.923,0-3.223-1.574-3.223-4.797s1.3-4.798,3.388-4.798c0.934,0,1.775,0.586,2.289,1.483h0.036l0.055-1.355h1.483
				c-0.019,0.549-0.073,1.135-0.073,1.703V53.301z M205.064,51.781c1.41,0,2.051-1.208,2.051-3.552s-0.641-3.553-2.051-3.553
				s-2.051,1.209-2.051,3.553S203.654,51.781,205.064,51.781z"/>
			<path fill="#130209" d="M211.895,48.687c0,2.161,0.842,3.167,2.545,3.167c0.77,0,1.611-0.384,2.143-0.769l0.073,1.392
				c-0.732,0.348-1.685,0.549-2.618,0.549c-2.473,0-3.754-1.867-3.754-4.797s1.281-4.798,3.607-4.798
				c2.105,0,3.277,1.685,3.277,4.432v0.824H211.895z M215.63,47.515c0-1.941-0.604-2.912-1.831-2.912
				c-0.988,0-1.867,0.732-1.904,2.912H215.63z"/>
			<path fill="#130209" d="M218.87,45.574c0-0.678-0.056-1.355-0.073-2.014h1.482l0.056,1.392h0.036
				c0.494-1.062,1.282-1.52,2.362-1.52c1.63,0,2.729,0.934,2.729,2.985v6.482h-1.538v-6.024c0-1.483-0.55-2.124-1.538-2.124
				c-1.209,0-1.978,0.843-1.978,2.527v5.621h-1.538V45.574z"/>
			<path fill="#130209" d="M229.454,39.715v1.831h-1.685v-1.831H229.454z M227.843,43.56h1.538v9.338h-1.538V43.56z"/>
			<path fill="#130209" d="M232.914,48.687c0,2.161,0.842,3.167,2.545,3.167c0.77,0,1.611-0.384,2.143-0.769l0.073,1.392
				c-0.732,0.348-1.685,0.549-2.618,0.549c-2.473,0-3.754-1.867-3.754-4.797s1.281-4.798,3.607-4.798
				c2.105,0,3.277,1.685,3.277,4.432v0.824H232.914z M236.649,47.515c0-1.941-0.604-2.912-1.831-2.912
				c-0.988,0-1.867,0.732-1.904,2.912H236.649z"/>
			<path fill="#130209" d="M246.481,50.884c0,0.677,0.055,1.355,0.073,2.014h-1.483l-0.055-1.392h-0.037
				c-0.494,1.062-1.281,1.52-2.362,1.52c-1.629,0-2.728-0.934-2.728-2.984V43.56h1.538v6.024c0,1.483,0.549,2.124,1.538,2.124
				c1.208,0,1.978-0.842,1.978-2.526V43.56h1.538V50.884z"/>
			<path fill="#130209" d="M248.716,45.574c0-0.678-0.056-1.355-0.073-2.014h1.482l0.056,1.465h0.036
				c0.494-1.135,1.282-1.593,2.655-1.593v1.52c-0.183-0.037-0.385-0.055-0.586-0.055c-1.19,0-2.032,1.025-2.032,3.058v4.944h-1.538
				V45.574z"/>
			<path fill="#130209" d="M255.288,48.687c0,2.161,0.843,3.167,2.545,3.167c0.77,0,1.611-0.384,2.143-0.769l0.073,1.392
				c-0.732,0.348-1.685,0.549-2.618,0.549c-2.472,0-3.754-1.867-3.754-4.797s1.282-4.798,3.607-4.798
				c2.105,0,3.277,1.685,3.277,4.432v0.824H255.288z M259.023,47.515c0-1.941-0.604-2.912-1.831-2.912
				c-0.989,0-1.868,0.732-1.904,2.912H259.023z"/>
			<path fill="#130209" d="M273.251,50.884c0,0.677,0.055,1.355,0.073,2.014h-1.483l-0.055-1.392h-0.037
				c-0.494,1.062-1.281,1.52-2.362,1.52c-1.629,0-2.728-0.934-2.728-2.984V43.56h1.538v6.024c0,1.483,0.549,2.124,1.538,2.124
				c1.208,0,1.978-0.842,1.978-2.526V43.56h1.538V50.884z"/>
			<path fill="#130209" d="M275.484,45.574c0-0.678-0.055-1.355-0.073-2.014h1.483l0.055,1.392h0.036
				c0.495-1.062,1.282-1.52,2.362-1.52c1.63,0,2.729,0.934,2.729,2.985v6.482h-1.538v-6.024c0-1.483-0.55-2.124-1.538-2.124
				c-1.209,0-1.978,0.843-1.978,2.527v5.621h-1.538V45.574z"/>
			<path fill="#130209" d="M291.029,51.177c0,0.568,0.055,1.154,0.073,1.721h-1.483l-0.055-1.373h-0.037
				c-0.402,0.732-1.098,1.501-2.453,1.501c-1.923,0-3.223-1.574-3.223-4.797s1.3-4.798,3.223-4.798c1.063,0,1.758,0.421,2.381,1.41
				h0.036v-5.676h1.538V51.177z M287.44,44.677c-1.41,0-2.051,1.209-2.051,3.553s0.641,3.552,2.051,3.552s2.051-1.208,2.051-3.552
				S288.851,44.677,287.44,44.677z"/>
			<path fill="#130209" d="M297.804,40.118h3.076c1.281,0,2.087,0.348,2.765,0.989c0.641,0.623,1.007,1.52,1.007,2.637
				c0,2.49-1.446,3.809-4.156,3.809h-1.08v5.347h-1.611V40.118z M299.415,46.233h0.879c1.959,0,2.673-0.916,2.673-2.344
				c0-1.758-0.988-2.454-2.637-2.454h-0.915V46.233z"/>
			<path fill="#130209" d="M306.465,39.166h1.538v13.733h-1.538V39.166z"/>
			<path fill="#130209" d="M310.749,44.201c0.769-0.495,1.721-0.77,2.637-0.77c1.373,0,2.197,0.586,2.49,0.879
				c0.402,0.403,0.806,0.971,0.806,2.289v4.871c0,0.549,0.036,1.099,0.073,1.428h-1.392l-0.092-1.264h-0.037
				c-0.421,0.714-1.189,1.392-2.618,1.392c-1.538,0-2.691-0.897-2.691-2.691c0-1.813,1.19-3.149,4.395-3.149h0.897v-0.421
				c0-0.696-0.055-1.099-0.348-1.502c-0.312-0.421-0.916-0.586-1.557-0.586c-0.952,0-1.868,0.385-2.398,0.971L310.749,44.201z
				 M315.217,48.321c-0.275-0.037-0.659-0.037-1.08-0.037c-1.813,0-2.674,0.86-2.674,1.941c0,0.989,0.513,1.629,1.574,1.629
				c1.337,0,2.18-1.08,2.18-2.362V48.321z"/>
			<path fill="#130209" d="M318.86,45.574c0-0.678-0.056-1.355-0.073-2.014h1.482l0.056,1.392h0.036
				c0.494-1.062,1.282-1.52,2.362-1.52c1.63,0,2.729,0.934,2.729,2.985v6.482h-1.538v-6.024c0-1.483-0.55-2.124-1.538-2.124
				c-1.209,0-1.978,0.843-1.978,2.527v5.621h-1.538V45.574z"/>
			<path fill="#130209" d="M328.839,48.687c0,2.161,0.843,3.167,2.545,3.167c0.77,0,1.611-0.384,2.143-0.769l0.073,1.392
				c-0.732,0.348-1.685,0.549-2.618,0.549c-2.472,0-3.754-1.867-3.754-4.797s1.282-4.798,3.607-4.798
				c2.105,0,3.277,1.685,3.277,4.432v0.824H328.839z M332.574,47.515c0-1.941-0.604-2.912-1.831-2.912
				c-0.989,0-1.868,0.732-1.904,2.912H332.574z"/>
			<path fill="#130209" d="M335.815,45.574c0-0.678-0.056-1.355-0.073-2.014h1.482l0.056,1.465h0.036
				c0.494-1.135,1.282-1.593,2.655-1.593v1.52c-0.183-0.037-0.385-0.055-0.586-0.055c-1.19,0-2.032,1.025-2.032,3.058v4.944h-1.538
				V45.574z"/>
		</g>
	</g>
</g>
</svg>
